<svg xmlns="http://www.w3.org/2000/svg" viewBox="0 0 400 400">
  <!-- No background -->
  
  <!-- Speech bubbles -->
  <path d="M140 150 C 110 150, 90 170, 90 200 C 90 230, 110 250, 140 250 L 180 250 L 170 280 L 200 250 L 240 250 C 270 250, 290 230, 290 200 C 290 170, 270 150, 240 150 Z" fill="#8A2BE2" />
  
  <path d="M160 170 C 140 170, 120 180, 120 200 C 120 220, 140 230, 160 230 L 190 230 L 180 250 L 200 230 L 230 230 C 250 230, 270 220, 270 200 C 270 180, 250 170, 230 170 Z" fill="#000000" />
  
  <!-- Subtle outline for the purple bubble to make it pop against dark background -->
  <path d="M140 150 C 110 150, 90 170, 90 200 C 90 230, 110 250, 140 250 L 180 250 L 170 280 L 200 250 L 240 250 C 270 250, 290 230, 290 200 C 290 170, 270 150, 240 150 Z" fill="none" stroke="#ffffff" stroke-width="2" opacity="0.3" />
  
  <!-- Dots representing conversation -->
  <circle cx="150" cy="200" r="8" fill="#ffffff" />
  <circle cx="180" cy="200" r="8" fill="#ffffff" />
  <circle cx="210" cy="200" r="8" fill="#ffffff" />
</svg>
