<svg xmlns="http://www.w3.org/2000/svg" viewBox="0 0 400 400">
  <!-- Subtle glow effect -->
  <defs>
    <filter id="glow" x="-20%" y="-20%" width="140%" height="140%">
      <feGaussianBlur stdDeviation="8" result="blur" />
      <feComposite in="SourceGraphic" in2="blur" operator="over" />
    </filter>
    
    <!-- Purple gradient for main bubble -->
    <linearGradient id="purpleGradient" x1="0%" y1="0%" x2="100%" y2="100%">
      <stop offset="0%" style="stop-color:#9932CC" />
      <stop offset="100%" style="stop-color:#8A2BE2" />
    </linearGradient>
    
    <!-- Glossy effect for bubbles -->
    <linearGradient id="glossEffect" x1="0%" y1="0%" x2="0%" y2="100%">
      <stop offset="0%" style="stop-color:#FFFFFF;stop-opacity:0.3" />
      <stop offset="100%" style="stop-color:#FFFFFF;stop-opacity:0" />
    </linearGradient>
  </defs>
  
  <!-- Purple speech bubble with gradient and dimension -->
  <path d="M140 150 C 110 150, 90 170, 90 200 C 90 230, 110 250, 140 250 L 180 250 L 170 280 L 200 250 L 240 250 C 270 250, 290 230, 290 200 C 290 170, 270 150, 240 150 Z" fill="url(#purpleGradient)" filter="url(#glow)" />
  
  <!-- Black speech bubble with subtle shadow -->
  <path d="M160 170 C 140 170, 120 180, 120 200 C 120 220, 140 230, 160 230 L 190 230 L 180 250 L 200 230 L 230 230 C 250 230, 270 220, 270 200 C 270 180, 250 170, 230 170 Z" fill="#000000" />
  
  <!-- Glossy highlight on purple bubble -->
  <path d="M140 150 C 110 150, 90 170, 90 185 C 140 170, 190 160, 240 165 C 270 170, 280 180, 280 190 C 280 175, 270 160, 240 150 Z" fill="url(#glossEffect)" opacity="0.5" />
  
  <!-- Refined dots with subtle glow -->
  <circle cx="150" cy="200" r="7" fill="#ffffff" />
  <circle cx="150" cy="200" r="10" fill="#ffffff" opacity="0.2" />
  
  <circle cx="180" cy="200" r="7" fill="#ffffff" />
  <circle cx="180" cy="200" r="10" fill="#ffffff" opacity="0.2" />
  
  <circle cx="210" cy="200" r="7" fill="#ffffff" />
  <circle cx="210" cy="200" r="10" fill="#ffffff" opacity="0.2" />
  
  <!-- Subtle pulse animation on one dot -->
  <circle cx="150" cy="200" r="5">
    <animate attributeName="r" values="5;7;5" dur="3s" repeatCount="indefinite" />
    <animate attributeName="opacity" values="1;0.8;1" dur="3s" repeatCount="indefinite" />
  </circle>
</svg>
